<?xml version="1.0" encoding="UTF-8"?>
<svg width="88px" height="30px" viewBox="0 0 88 30" version="1.1" xmlns="http://www.w3.org/2000/svg" xmlns:xlink="http://www.w3.org/1999/xlink">
    <!-- Generator: Sketch 60 (88103) - https://sketch.com -->
    <title>YANIV!</title>
    <desc>Created with Sketch.</desc>
    <defs>
        <linearGradient x1="100%" y1="55.8109504%" x2="55.81781%" y2="46.0686069%" id="linearGradient-1">
            <stop stop-color="#4048EF" offset="0%"></stop>
            <stop stop-color="#5A7BEF" offset="100%"></stop>
        </linearGradient>
        <path d="M38,62 C40,62 41,61.3333333 41,60 L41,60 L41,51.5625 C44.3333333,50.4583333 46,47.2708333 46,42 L46,42 L46,38 C46,36.6666667 45,36 43,36 C41,36 40,36.6666667 40,38 L40,38 L40,42 C40,44.6666667 39.3333333,46 38,46 C36.6666667,46 36,44.6666667 36,42 L36,42 L36,40 C36,38.6666667 35,38 33,38 C31.0208333,38 30.0208333,38.6510417 30,39.953125 L30,39.953125 L30,42 C30,47.2708333 31.6666667,50.4583333 35,51.5625 L35,51.5625 L35,60.046875 C35.0208333,61.3489583 36.0208333,62 38,62 Z M61,58 C63,58 64,57.3333333 64,56 L64,56 L64,46 C64,39.3333333 61.3333333,36 56,36 C50.6666667,36 48,39.3333333 48,46 L48,46 L48,54.046875 C48.0208333,55.3489583 49.0208333,56 51,56 C53,56 54,55.3333333 54,54 L54,54 L54,52 L58,52 L58,56 C58,57.3333333 59,58 61,58 Z M58,46 L54,46 C54,43.3333333 54.6666667,42 56,42 C57.3333333,42 58,43.3333333 58,46 L58,46 Z M79,58 C81,58 82,57.3333333 82,56 L82,56 L82,46 C82,39.3333333 79.3333333,36 74,36 C68.6666667,36 66,39.3333333 66,46 L66,46 L66,54.046875 C66.0208333,55.3489583 67.0208333,56 69,56 C71,56 72,55.3333333 72,54 L72,54 L72,46 C72,43.3333333 72.6666667,42 74,42 C75.3333333,42 76,43.3333333 76,46 L76,46 L76,56 C76,57.3333333 77,58 79,58 Z M88,40 C89.3333333,40 90,39.3333333 90,38 L90,38 L90,36 C90,34.6666667 89.3333333,34 88,34 L88,34 L86,34 C84.6666667,34 84,34.6666667 84,36 L84,36 L84,38 C84,39.3333333 84.6666667,40 86,40 L86,40 L88,40 Z M87,56 C89,56 90,55.3333333 90,54 L90,54 L90,44 C90,42.6666667 89,42 87,42 C85.0208333,42 84.0208333,42.6510417 84,43.953125 L84,43.953125 L84,54.046875 C84.0208333,55.3489583 85.0208333,56 87,56 Z M101,58.015625 C102.229167,58.0052083 103.036458,57.6666667 103.421875,57 C103.807292,56.3333333 105.963542,50.4270833 109.890625,39.28125 C109.973958,39.0520833 110.015625,38.828125 110.015625,38.609375 C110.015625,37.671875 109.244792,36.921875 107.703125,36.359375 C107.057292,36.1197917 106.494792,36 106.015625,36 C105.130208,36 104.541667,36.4114583 104.25,37.234375 L104.25,37.234375 L101,46.15625 L97.75,37.234375 C97.4583333,36.4114583 96.8697917,36 95.984375,36 C95.5052083,36 94.9427083,36.1197917 94.296875,36.359375 C92.7552083,36.921875 91.984375,37.671875 91.984375,38.609375 C91.984375,38.828125 92.0260417,39.0520833 92.109375,39.28125 C96.0364583,50.4270833 98.1614583,56.3333333 98.484375,57 C98.8072917,57.6666667 99.6458333,58.0052083 101,58.015625 Z M115,50 C117,50 118,49.3333333 118,48 L118,48 L118,34 C118,32.6666667 117,32 115,32 C113.020833,32 112.020833,32.6510417 112,33.953125 L112,33.953125 L112,48.046875 C112.020833,49.3489583 113.020833,50 115,50 Z M116,58 C117.333333,58 118,57.3333333 118,56 L118,56 L118,54 C118,52.6666667 117.333333,52 116,52 L116,52 L114,52 C112.666667,52 112,52.6666667 112,54 L112,54 L112,56 C112,57.3333333 112.666667,58 114,58 L114,58 L116,58 Z" id="path-2"></path>
    </defs>
    <g id="Page-1" stroke="none" stroke-width="1" fill="none" fill-rule="evenodd">
        <g id="Pixel-3-XL-Copy-14" transform="translate(-30.000000, -32.000000)" fill-rule="nonzero">
            <g id="Group">
                <g id="YANIV!">
                    <use fill="#FFFFFF" xlink:href="#path-2"></use>
                    <use fill="url(#linearGradient-1)" xlink:href="#path-2"></use>
                </g>
            </g>
        </g>
    </g>
</svg>